<svg id="Layer_1" data-name="Layer 1" xmlns="http://www.w3.org/2000/svg" viewBox="0 0 290.86 65.51"><defs><clipPath id="clip-path" transform="translate(-6.06 -1.37)"><path style="fill:none" d="M6.06 1.37h290.86v65.51H6.06z"/></clipPath><style>.cls-2{fill:#173a64}</style></defs><path class="cls-2" d="m64.83 19.45-3.15.08c-1.22 0-1.72.15-2 .62a2.37 2.37 0 0 0-.36.73c0 .17-.1.26-.23.26s-.19-.11-.19-.34.4-2.26.44-2.43.13-.4.26-.4a4.17 4.17 0 0 0 .9.26c.61.06 1.41.1 2.11.1h8.35a10.53 10.53 0 0 0 1.45-.1 4.34 4.34 0 0 1 .57-.11c.15 0 .17.13.17.44s-.06 1.9-.06 2.45c0 .21-.06.34-.19.34s-.21-.11-.23-.42v-.24c0-.54-.62-1.13-2.49-1.18l-2.66-.06v8.64c0 1.94 0 3.61.11 4.52.06.59.19 1 .82 1.13a7.47 7.47 0 0 0 1.07.09c.24 0 .34.06.34.17s-.17.21-.4.21c-1.39 0-2.72-.06-3.31-.06s-1.81.06-2.66.06c-.27 0-.42-.06-.42-.21s.09-.17.34-.17a3 3 0 0 0 .76-.09c.42-.08.55-.54.61-1.16.11-.88.11-2.55.11-4.49v-8.64ZM85.14 26.28a.11.11 0 0 0 .11-.12v-4.22c0-.58-.18-.9-.78-1a4.3 4.3 0 0 0-.7-.05c-.2 0-.31 0-.31-.16s.13-.17.38-.17c1 0 2.11.06 2.6.06s1.58-.06 2.28-.06c.25 0 .38 0 .38.17s-.11.16-.33.16a4 4 0 0 0-.52.05c-.49.09-.63.4-.67 1s0 1.09 0 3.84V29c0 1.66 0 3.09.1 3.87.05.5.16.9.7 1a6.86 6.86 0 0 0 .92.07c.2 0 .29.06.29.15s-.14.18-.36.18c-1.17 0-2.31-.05-2.82-.05s-1.55.05-2.26.05c-.25 0-.38-.05-.38-.18s.07-.15.29-.15a2.73 2.73 0 0 0 .65-.07c.36-.07.45-.47.52-1 .1-.76.1-2.19.1-3.85v-1.65a.1.1 0 0 0-.11-.11h-6.99a.1.1 0 0 0-.11.11V29c0 1.66 0 3.09.09 3.87.06.5.17.9.71 1a6.86 6.86 0 0 0 .92.07c.2 0 .29.06.29.15s-.15.18-.36.18c-1.18 0-2.32-.05-2.82-.05s-1.56.05-2.28.05c-.23 0-.36-.05-.36-.18s.07-.15.29-.15a2.73 2.73 0 0 0 .65-.07c.36-.07.45-.47.52-1 .09-.76.09-2.19.09-3.85v-7.08c0-.58-.18-.9-.78-1a4.43 4.43 0 0 0-.71-.05c-.19 0-.3 0-.3-.16s.12-.17.38-.17c1 0 2.11.06 2.6.06s1.57-.06 2.28-.06c.25 0 .38 0 .38.17s-.11.16-.33.16a3.89 3.89 0 0 0-.52.05c-.49.09-.63.4-.67 1s0 1.09 0 3.84v.38a.11.11 0 0 0 .11.12ZM92.53 25.78v-3.84c0-.58-.18-.9-.78-1a4.3 4.3 0 0 0-.7-.05c-.2 0-.31 0-.31-.16s.13-.17.4-.17H98.26a6.78 6.78 0 0 0 .78-.11 1.53 1.53 0 0 1 .29-.07c.09 0 .11.07.11.16s-.09.34-.15 1.18c0 .18 0 1-.09 1.19s0 .2-.18.2-.16-.09-.16-.26a2 2 0 0 0-.11-.65c-.13-.32-.31-.54-1.21-.65-.31 0-2.21-.07-2.57-.07-.09 0-.12.06-.12.18v4.58c0 .12 0 .19.12.19h2.9c.42 0 .7-.09.86-.27s.2-.24.29-.24.13 0 .13.15-.07.39-.15 1.32c0 .36-.07 1.08-.07 1.21s0 .34-.16.34-.16-.07-.16-.16a4.25 4.25 0 0 0-.08-.65c-.09-.36-.34-.64-1-.71h-2.57c-.09 0-.1.07-.1.18V31.8c0 1.25.32 1.52 2.17 1.52a4.56 4.56 0 0 0 1.7-.22c.46-.22.68-.6.81-1.34 0-.2.07-.27.2-.27s.14.15.14.33a14.22 14.22 0 0 1-.23 2c-.13.47-.29.47-1 .47h-3.13c-.78 0-1.33-.05-1.88-.05H91.4c-.36 0-.4-.09-.4-.24s.08-.15.29-.15a2.73 2.73 0 0 0 .65-.07c.37-.07.46-.47.53-1 .09-.76.09-2.19.09-3.85v-3.15ZM107.9 24.38v-4.47c0-.68-.21-1.05-.9-1.2a4.63 4.63 0 0 0-.83-.06c-.23 0-.36 0-.36-.19s.15-.19.47-.19c1.12 0 2.44.06 3.08.06s1.83-.06 2.59-.06c.32 0 .46 0 .46.19s-.12.19-.33.19a3.42 3.42 0 0 0-.62.06c-.56.11-.73.47-.78 1.2s0 1.27 0 4.47v3c0 3.05.61 4.34 1.65 5.18a3.91 3.91 0 0 0 2.63.87 4.14 4.14 0 0 0 2.91-1.14C119 31.09 119 29.19 119 27v-7.09c0-.68-.21-1.05-.9-1.2a4.34 4.34 0 0 0-.76-.06c-.23 0-.36 0-.36-.19s.15-.19.44-.19c1.08 0 2.41.06 2.43.06.25 0 1.58-.06 2.4-.06.29 0 .44 0 .44.19s-.12.19-.38.19a3.31 3.31 0 0 0-.61.06c-.57.11-.74.47-.78 1.2s0 1.27 0 4.47v2.26c0 2.34-.23 4.83-2 6.35a6.33 6.33 0 0 1-4.39 1.51 6.78 6.78 0 0 1-4.68-1.45c-1.07-1-1.88-2.53-1.88-5.59v-3.08ZM125.81 31.74c0 1.41.28 1.88.64 2a2.79 2.79 0 0 0 .94.12c.2 0 .3 0 .3.15s-.16.18-.41.18c-1.18 0-1.9-.05-2.24-.05-.17 0-1 .05-2 .05-.23 0-.39 0-.39-.18s.11-.15.29-.15a2.88 2.88 0 0 0 .81-.09c.47-.14.54-.67.56-2.24l.16-10.65c0-.36.06-.61.24-.61s.36.23.67.56 3 3.13 5.6 5.75c1.23 1.23 3.67 3.83 4 4.12h.09l-.18-8.12c0-1.1-.18-1.44-.62-1.62a2.9 2.9 0 0 0-1-.11c-.21 0-.28-.06-.28-.16s.19-.17.47-.17c.94 0 1.8.06 2.18.06.2 0 .89-.06 1.77-.06.24 0 .42 0 .42.17s-.11.16-.33.16a2.13 2.13 0 0 0-.54.05c-.5.15-.65.53-.67 1.54l-.2 11.41c0 .39-.07.56-.23.56s-.42-.2-.62-.4c-1.13-1.09-3.45-3.45-5.33-5.32s-4-4.15-4.3-4.5l.19 7.54ZM141 25.78v-3.84c0-.58-.22-.92-.62-1a2.7 2.7 0 0 0-.65-.07c-.18 0-.28 0-.28-.18s.14-.15.43-.15c.69 0 1.82.06 2.35.06s1.52-.06 2.2-.06c.24 0 .38 0 .38.15s-.1.18-.28.18a3.74 3.74 0 0 0-.55.05c-.49.09-.63.4-.67 1s0 1.09 0 3.84V29c0 1.75 0 3.18.07 4 0 .48.18.81.72.88a7 7 0 0 0 .92.07c.2 0 .29.06.29.15s-.14.18-.34.18c-1.19 0-2.33-.05-2.82-.05s-1.55.05-2.28.05c-.23 0-.36-.05-.36-.18s.07-.15.29-.15a2.73 2.73 0 0 0 .65-.07c.36-.07.47-.38.53-.9.09-.76.09-2.19.09-3.94v-3.26ZM147.7 22.3c-.41-1-.72-1.19-1.37-1.37a2.89 2.89 0 0 0-.71-.07c-.16 0-.21-.06-.21-.16s.2-.17.47-.17c1 0 2 .06 2.62.06.45 0 1.32-.06 2.22-.06.22 0 .42 0 .42.17s-.11.16-.27.16a1.42 1.42 0 0 0-.71.12.46.46 0 0 0-.18.38 5.14 5.14 0 0 0 .42 1.4l3.11 8.2h.07c.78-2 3.13-7.81 3.56-9a2.21 2.21 0 0 0 .16-.67.34.34 0 0 0-.23-.34 2.52 2.52 0 0 0-.73-.09c-.16 0-.3 0-.3-.15s.16-.18.5-.18c.91 0 1.67.06 1.9.06s1.16-.06 1.7-.06c.24 0 .38 0 .38.17s-.11.16-.29.16a1.53 1.53 0 0 0-.88.22c-.24.16-.51.47-1 1.62-.7 1.7-1.19 2.68-2.17 4.9-1.16 2.64-2 4.61-2.4 5.51s-.58 1.34-.83 1.34-.35-.25-.69-1.1l-4.56-11Z" transform="translate(-6.06 -1.37)"/><path class="cls-2" d="M161.91 25.78v-3.84c0-.58-.18-.9-.77-1a4.43 4.43 0 0 0-.71-.05c-.2 0-.3 0-.3-.16s.12-.17.39-.17H167.65a6.88 6.88 0 0 0 .77-.11 1.53 1.53 0 0 1 .29-.07c.09 0 .11.07.11.16a11.07 11.07 0 0 0-.14 1.18c0 .18-.06 1-.09 1.19s-.06.2-.19.2-.16-.09-.16-.26a2 2 0 0 0-.11-.65c-.12-.32-.3-.54-1.21-.65-.3 0-2.2-.07-2.57-.07-.09 0-.12.06-.12.18v4.58c0 .12 0 .19.12.19h2.9a1.32 1.32 0 0 0 .87-.27c.12-.15.19-.24.28-.24s.13 0 .13.15-.07.39-.14 1.32c0 .36-.08 1.08-.08 1.21s0 .34-.16.34-.16-.07-.16-.16a5.8 5.8 0 0 0-.07-.65c-.09-.36-.35-.64-1-.71h-2.56c-.09 0-.11.07-.11.18V31.8c0 1.25.32 1.52 2.17 1.52a4.53 4.53 0 0 0 1.7-.22c.47-.22.68-.6.81-1.34 0-.2.07-.27.2-.27s.14.15.14.33a14.22 14.22 0 0 1-.23 2c-.13.47-.29.47-1 .47h-3.12c-.77 0-1.34-.05-1.88-.05h-2.24c-.36 0-.36-.05-.36-.18s.07-.15.29-.15a2.8 2.8 0 0 0 .65-.07c.36-.07.45-.47.52-1 .09-.76.09-2.19.09-3.85v-3.21ZM174.56 27.2c0 .2 0 .27.17.33a4.63 4.63 0 0 0 1.37.18 1.77 1.77 0 0 0 1.28-.31 3.17 3.17 0 0 0 1.07-2.71c0-2.57-1.7-3.31-2.77-3.31a4.16 4.16 0 0 0-1 .07c-.13 0-.17.11-.17.26v5.49Zm-2.13-1.42v-3.84c0-.58-.18-.9-.77-1a4.43 4.43 0 0 0-.71-.05c-.2 0-.3 0-.3-.16s.12-.17.39-.17c1 0 2.1.06 2.48.06.61 0 2-.06 2.55-.06a5.74 5.74 0 0 1 3.32.78 3.13 3.13 0 0 1 1.23 2.48c0 1.33-.56 2.56-2.38 4.05 1.61 2 2.85 3.63 3.92 4.75a3.54 3.54 0 0 0 2 1.23 2.41 2.41 0 0 0 .5 0c.15 0 .22.06.22.15s-.13.18-.35.18h-1.71a3.72 3.72 0 0 1-1.94-.34 8.87 8.87 0 0 1-2.47-2.66c-.73-1-1.56-2.23-1.79-2.5a.4.4 0 0 0-.33-.12h-1.57a.13.13 0 0 0-.15.15v.25c0 1.68 0 3.11.09 3.87.06.52.17.92.71 1a7.38 7.38 0 0 0 .89.07c.14 0 .21.06.21.15s-.12.18-.36.18c-1 0-2.39-.05-2.66-.05s-1.48.05-2.2.05c-.24 0-.36-.05-.36-.18s.07-.15.29-.15a2.8 2.8 0 0 0 .65-.07c.36-.07.45-.47.52-1 .09-.76.09-2.19.09-3.85v-3.2Z" transform="translate(-6.06 -1.37)"/><path class="cls-2" d="M183.82 34c-.29-.12-.35-.21-.35-.61 0-1 .08-2.08.09-2.37s.08-.47.22-.47.18.16.18.31a3.87 3.87 0 0 0 .16.92 2.49 2.49 0 0 0 2.59 1.82 2.19 2.19 0 0 0 2.42-2.06c0-.88-.27-1.71-1.77-2.89l-.83-.65c-2-1.55-2.68-2.82-2.68-4.28 0-2 1.67-3.42 4.18-3.42a8.58 8.58 0 0 1 2.4.31c.17 0 .26.09.26.21s-.07.76-.07 2.17c0 .4-.06.55-.2.55s-.19-.11-.19-.33a2.19 2.19 0 0 0-.47-1.19 2.26 2.26 0 0 0-2-.89 1.91 1.91 0 0 0-2.12 1.87c0 .83.42 1.47 1.92 2.61l.51.38c2.18 1.64 3 2.89 3 4.61a3.65 3.65 0 0 1-1.7 3.14 5.18 5.18 0 0 1-2.87.74 6.14 6.14 0 0 1-2.64-.47ZM194.43 25.78v-3.84c0-.58-.22-.92-.61-1a2.81 2.81 0 0 0-.65-.07c-.18 0-.29 0-.29-.18s.14-.15.43-.15c.69 0 1.83.06 2.35.06s1.52-.06 2.21-.06c.23 0 .38 0 .38.15s-.11.18-.29.18a3.86 3.86 0 0 0-.55.05c-.48.09-.63.4-.66 1s0 1.09 0 3.84V29c0 1.75 0 3.18.07 4 .06.48.18.81.72.88a7.14 7.14 0 0 0 .93.07c.2 0 .29.06.29.15s-.15.18-.35.18c-1.19 0-2.33-.05-2.82-.05s-1.55.05-2.28.05c-.23 0-.36-.05-.36-.18s.08-.15.29-.15a2.73 2.73 0 0 0 .65-.07c.36-.07.47-.38.53-.9.09-.76.09-2.19.09-3.94v-3.26ZM204.82 21.55l-2.69.07c-1 0-1.48.12-1.76.52a2 2 0 0 0-.3.63c0 .15-.09.22-.2.22s-.16-.09-.16-.29.34-1.93.38-2.08.1-.34.21-.34a4.72 4.72 0 0 0 .78.22c.52.05 1.21.09 1.81.09h7.16a9.67 9.67 0 0 0 1.24-.09 3.27 3.27 0 0 1 .49-.09c.13 0 .15.1.15.38s-.06 1.62-.06 2.09c0 .18-.05.29-.16.29s-.18-.09-.2-.36v-.2c0-.47-.52-1-2.13-1l-2.28-.05V29c0 1.66 0 3.09.09 3.87.06.5.16.9.71 1a6.86 6.86 0 0 0 .92.07c.2 0 .29.06.29.15s-.15.18-.35.18c-1.19 0-2.33-.05-2.83-.05s-1.56.05-2.28.05c-.24 0-.36-.05-.36-.18s.07-.15.29-.15a2.8 2.8 0 0 0 .65-.07c.36-.07.47-.47.52-1 .09-.76.09-2.19.09-3.85v-7.47ZM219.26 29.52a3.88 3.88 0 0 0-.41-1.9c-.13-.29-2.55-4.27-3.18-5.21a4.57 4.57 0 0 0-1.25-1.32 1.94 1.94 0 0 0-.76-.23c-.14 0-.27 0-.27-.16s.13-.17.34-.17 1.68.06 2.28.06c.38 0 1.12-.06 1.93-.06.18 0 .27.06.27.17s-.12.12-.39.19a.35.35 0 0 0-.26.33 1.82 1.82 0 0 0 .22.61c.25.55 2.78 4.9 3.07 5.41.19-.43 2.46-4.41 2.72-5a2.38 2.38 0 0 0 .25-.94.43.43 0 0 0-.38-.45c-.16 0-.33-.08-.33-.18s.09-.17.31-.17c.6 0 1.18.06 1.7.06s1.59-.06 1.94-.06c.19 0 .32 0 .32.15s-.14.18-.34.18a1.9 1.9 0 0 0-.8.22 2.66 2.66 0 0 0-1 .88 59.09 59.09 0 0 0-3.45 5.75 4.34 4.34 0 0 0-.27 1.81V31c0 .29 0 1 .06 1.81 0 .52.19.92.74 1a6.82 6.82 0 0 0 .9.07c.2 0 .29.06.29.15s-.14.18-.38.18c-1.14 0-2.28-.05-2.77-.05s-1.59.05-2.26.05c-.25 0-.39 0-.39-.18s.09-.15.29-.15a2.68 2.68 0 0 0 .63-.07c.36-.07.52-.47.56-1v-3.29ZM243.23 27.71c0-4.05-2.33-6.56-5.29-6.56-2.08 0-4.45 1.15-4.45 5.66 0 3.76 2.08 6.74 5.55 6.74 1.26 0 4.19-.62 4.19-5.84ZM231 27.37c0-3.1 2-7.09 7.47-7.09 4.5 0 7.3 2.62 7.3 6.76a7.14 7.14 0 0 1-7.48 7.41 6.88 6.88 0 0 1-7.29-7.08ZM250.73 29c0 1.73 0 3.09.09 3.85.06.52.17.92.71 1a6.82 6.82 0 0 0 .9.07c.24 0 .31.06.31.15s-.13.18-.4.18c-1.14 0-2.28-.05-2.75-.05s-1.6.05-2.29.05c-.26 0-.38 0-.38-.18s.07-.15.27-.15a2.73 2.73 0 0 0 .65-.07c.36-.07.45-.47.52-1 .09-.76.09-2.12.09-3.85V21.94c0-.58-.18-.9-.78-1a4.3 4.3 0 0 0-.7-.05c-.18 0-.31 0-.31-.15s.14-.18.41-.18H254.45a4 4 0 0 0 .74-.07 1.06 1.06 0 0 1 .29-.11.15.15 0 0 1 .13.16c0 .13-.09.34-.15.81 0 .19-.05 1.25-.09 1.47s-.05.25-.18.25-.19-.07-.19-.28a1.72 1.72 0 0 0-.11-.68 1.28 1.28 0 0 0-1.19-.55h-2.79c-.1 0-.16 0-.16.25v4.52c0 .11 0 .16.13.16h3.13a.93.93 0 0 0 .77-.33c.09-.11.13-.18.24-.18s.11.06.11.16-.09.57-.15 1.13c0 .36-.07 1.19-.07 1.31s0 .35-.18.35-.15-.13-.15-.25a2.07 2.07 0 0 0-.1-.57 1.09 1.09 0 0 0-.93-.65c-.45-.05-2.36-.05-2.67-.05-.09 0-.13 0-.13.16V29ZM64.59 44.94h.11c.72-.78 3.79-3.92 4.41-4.63s1-1.23 1-1.59a.37.37 0 0 0-.3-.42c-.19 0-.27-.08-.27-.21s.11-.19.34-.19c.44 0 1.6.07 2.17.07s1.81-.07 2.47-.07c.21 0 .35.05.35.19s-.1.19-.31.19a4.31 4.31 0 0 0-1.22.23 6.8 6.8 0 0 0-2.28 1.59c-.65.63-3.84 3.79-4.56 4.55.76 1 4.9 5.44 5.72 6.22a10.34 10.34 0 0 0 3 2.28 3.73 3.73 0 0 0 1.31.31c.15 0 .27 0 .27.17s-.1.21-.5.21h-3.23a4.14 4.14 0 0 1-2.61-1.37c-.93-.82-5.09-5.69-5.53-6.3l-.23-.32h-.11v1.92c0 1.94 0 3.6.07 4.51 0 .59.23 1 .76 1.14a9.29 9.29 0 0 0 1 .08c.17 0 .27.07.27.17s-.17.21-.4.21c-1.18 0-2.51-.06-3-.06s-1.82.06-2.66.06c-.27 0-.42-.06-.42-.21s.08-.17.34-.17a3.5 3.5 0 0 0 .75-.08c.43-.09.53-.55.62-1.16.1-.89.1-2.55.1-4.49v-8.24c0-.67-.21-1.06-.91-1.2a3.67 3.67 0 0 0-.82-.07c-.23 0-.36 0-.36-.19s.15-.19.47-.19c1.11 0 2.44.07 3 .07s1.83-.07 2.55-.07c.29 0 .44.05.44.19s-.12.19-.29.19a2.62 2.62 0 0 0-.59.07c-.57.1-.74.46-.78 1.2s0 1.26 0 4.47v.92Z" transform="translate(-6.06 -1.37)"/><path class="cls-2" d="M83.18 48.32c.09 0 .11-.06.09-.11l-1.62-4.45c0-.07 0-.16-.09-.16s-.09.09-.11.16l-1.67 4.43c0 .07 0 .13.08.13Zm-3.68.9c-.1 0-.13 0-.17.15l-1 2.47a3.67 3.67 0 0 0-.25 1.16c0 .32.17.56.73.56h.27c.22 0 .27 0 .27.14s-.11.18-.31.18h-4.05c-.23 0-.34 0-.34-.18s.07-.14.22-.14a5.09 5.09 0 0 0 .56 0c.83-.11 1.17-.72 1.53-1.63l4.54-11.2c.22-.53.33-.73.51-.73s.27.17.45.58c.43 1 3.33 8.23 4.48 11 .69 1.63 1.21 1.88 1.59 2a4.38 4.38 0 0 0 .76.07c.15 0 .24 0 .24.14s-.16.18-.83.18h-3.42c-.33 0-.54 0-.54-.15s.07-.14.25-.16a.3.3 0 0 0 .16-.42l-1.44-3.72a.18.18 0 0 0-.18-.13Z" transform="translate(-6.06 -1.37)"/><path class="cls-2" d="M92.26 51.37c0 1.41.27 1.88.63 2a2.84 2.84 0 0 0 .94.13c.2 0 .31 0 .31.14s-.17.18-.42.18h-4.24c-.24 0-.4 0-.4-.18s.11-.14.29-.14a3.3 3.3 0 0 0 .81-.09c.47-.15.54-.67.56-2.24L91 40.53c0-.36.05-.62.23-.62s.36.24.67.56 3 3.13 5.6 5.75c1.23 1.23 3.67 3.83 4 4.12h.09l-.18-8.11c0-1.11-.18-1.45-.61-1.63a3 3 0 0 0-1-.11c-.22 0-.29-.05-.29-.16s.2-.16.47-.16h3.96c.23 0 .41 0 .41.16s-.11.16-.32.16a1.85 1.85 0 0 0-.55.06c-.5.14-.65.52-.66 1.53l-.2 11.41c0 .4-.08.56-.24.56s-.41-.2-.61-.4c-1.14-1.08-3.46-3.45-5.34-5.31s-4-4.16-4.3-4.5l.2 7.53ZM105.38 53.62c-.29-.13-.34-.22-.34-.62 0-1 .07-2.08.09-2.37s.07-.47.21-.47.18.17.18.31a3.85 3.85 0 0 0 .17.92 2.48 2.48 0 0 0 2.58 1.83 2.19 2.19 0 0 0 2.42-2.06c0-.89-.27-1.72-1.77-2.9l-.83-.65c-2-1.55-2.67-2.82-2.67-4.28 0-2 1.66-3.42 4.17-3.42a8.61 8.61 0 0 1 2.41.31c.16 0 .25.09.25.22s-.07.76-.07 2.17c0 .39-.06.54-.2.54s-.18-.11-.18-.33a2.19 2.19 0 0 0-.47-1.19 2.3 2.3 0 0 0-2-.89 1.9 1.9 0 0 0-2.15 1.87c0 .83.41 1.46 1.91 2.6l.51.38c2.18 1.64 3 2.89 3 4.61a3.64 3.64 0 0 1-1.7 3.14 5.19 5.19 0 0 1-2.87.75 6.32 6.32 0 0 1-2.64-.47ZM121.12 48.32c.09 0 .11-.06.09-.11l-1.62-4.45c0-.07 0-.16-.09-.16s-.09.09-.11.16l-1.67 4.43c0 .07 0 .13.08.13Zm-3.68.9c-.09 0-.13 0-.17.15l-1 2.47A3.58 3.58 0 0 0 116 53c0 .32.16.56.72.56h.28c.22 0 .27 0 .27.14s-.11.18-.31.18h-4.05c-.23 0-.34 0-.34-.18s.07-.14.22-.14a5.09 5.09 0 0 0 .56 0c.83-.11 1.17-.72 1.53-1.63l4.54-11.2c.22-.53.33-.73.51-.73s.27.17.45.58c.43 1 3.33 8.23 4.48 11 .69 1.63 1.21 1.88 1.59 2a4.46 4.46 0 0 0 .76.07c.15 0 .24 0 .24.14s-.16.18-.83.18h-3.42c-.33 0-.54 0-.54-.15s.07-.14.25-.16a.3.3 0 0 0 .16-.42l-1.44-3.72a.18.18 0 0 0-.18-.13ZM128.19 53.62c-.29-.13-.34-.22-.34-.62 0-1 .07-2.08.09-2.37s.07-.47.21-.47.19.17.19.31a3.79 3.79 0 0 0 .16.92 2.49 2.49 0 0 0 2.58 1.83 2.2 2.2 0 0 0 2.43-2.06c0-.89-.28-1.72-1.78-2.9l-.83-.65c-2-1.55-2.67-2.82-2.67-4.28 0-2 1.66-3.42 4.17-3.42a8.61 8.61 0 0 1 2.41.31c.16 0 .25.09.25.22s-.07.76-.07 2.17c0 .39-.06.54-.2.54s-.18-.11-.18-.33a2.19 2.19 0 0 0-.47-1.19 2.3 2.3 0 0 0-2-.89 1.9 1.9 0 0 0-2.14 1.87c0 .83.41 1.46 1.91 2.6l.51.38c2.19 1.64 3 2.89 3 4.61a3.62 3.62 0 0 1-1.7 3.14 5.19 5.19 0 0 1-2.87.75 6.32 6.32 0 0 1-2.64-.47ZM154.63 44.61c.06 0 .12 0 .12-.15v-4.93c0-.67-.21-1.06-.9-1.2a3.77 3.77 0 0 0-.83-.07c-.23 0-.36 0-.36-.19s.15-.19.45-.19c1.14 0 2.46.07 3 .07s1.84-.07 2.66-.07c.3 0 .44.05.44.19s-.12.19-.38.19a3.07 3.07 0 0 0-.61.07c-.57.1-.74.46-.78 1.2s0 1.26 0 4.47v3.71c0 1.94 0 3.6.1 4.51.07.59.19 1 .83 1.14a9.28 9.28 0 0 0 1.07.08c.23 0 .34.07.34.17s-.17.21-.42.21c-1.37 0-2.7-.06-3.29-.06s-1.81.06-2.64.06c-.29 0-.44-.06-.44-.21s.09-.17.34-.17a3.68 3.68 0 0 0 .76-.08c.42-.09.52-.55.61-1.16.1-.89.1-2.55.1-4.49v-1.84a.12.12 0 0 0-.12-.12h-8.06a.11.11 0 0 0-.12.12v1.86c0 1.94 0 3.6.1 4.51.07.59.19 1 .82 1.14a9.46 9.46 0 0 0 1.08.08c.23 0 .34.07.34.17s-.17.21-.42.21c-1.37 0-2.7-.06-3.29-.06s-1.82.06-2.66.06c-.27 0-.42-.06-.42-.21s.08-.17.34-.17a3.5 3.5 0 0 0 .75-.08c.43-.09.53-.55.62-1.16.1-.89.1-2.55.1-4.49v-8.2c0-.67-.21-1.06-.91-1.2a3.67 3.67 0 0 0-.82-.07c-.23 0-.36 0-.36-.19s.15-.19.45-.19c1.13 0 2.46.07 3 .07s1.84-.07 2.66-.07c.29 0 .44.05.44.19s-.13.19-.38.19a3.07 3.07 0 0 0-.61.07c-.57.1-.74.46-.78 1.2s0 1.26 0 4.47v.44c0 .11.06.15.12.15ZM161.91 45.41v-3.83c0-.57-.18-.91-.77-1a3.41 3.41 0 0 0-.71-.06c-.2 0-.3 0-.3-.16s.12-.16.39-.16h7.14a5.1 5.1 0 0 0 .77-.11c.09 0 .2-.07.29-.07s.11.07.11.16a11.54 11.54 0 0 0-.14 1.18c0 .18-.06 1-.09 1.19s-.06.2-.19.2-.16-.09-.16-.25a1.91 1.91 0 0 0-.11-.65c-.12-.33-.3-.54-1.21-.65-.3 0-2.2-.08-2.57-.08-.09 0-.12.06-.12.19v4.57c0 .13 0 .2.12.2h2.9a1.26 1.26 0 0 0 .87-.27c.12-.14.19-.23.28-.23s.13 0 .13.14-.07.4-.14 1.32c0 .36-.08 1.08-.08 1.21s0 .34-.16.34-.16-.07-.16-.16a6.06 6.06 0 0 0-.07-.65c-.09-.36-.35-.63-1-.7-.34 0-2.13-.06-2.56-.06-.09 0-.11.07-.11.18V51.43c0 1.25.32 1.52 2.17 1.52a4.53 4.53 0 0 0 1.7-.22c.47-.21.68-.59.81-1.33 0-.2.07-.28.2-.28s.14.15.14.33a14.19 14.19 0 0 1-.23 2c-.13.47-.29.47-1 .47-1.35 0-2.35 0-3.12-.06s-1.34 0-1.88 0h-2.24c-.24 0-.36 0-.36-.18s.07-.14.29-.14a3.48 3.48 0 0 0 .65-.07c.36-.08.45-.48.52-1 .09-.76.09-2.19.09-3.85v-3.21Z" transform="translate(-6.06 -1.37)"/><path class="cls-2" d="M176.84 48.32c.09 0 .11-.06.09-.11l-1.62-4.45c0-.07 0-.16-.1-.16s-.09.09-.1.16l-1.67 4.43c0 .07 0 .13.08.13Zm-3.69.9c-.09 0-.12 0-.16.15l-1 2.47a3.58 3.58 0 0 0-.27 1.11c0 .32.17.56.73.56h.27c.21 0 .27 0 .27.14s-.11.18-.31.18h-4.05c-.23 0-.34 0-.34-.18s.07-.14.22-.14a5.09 5.09 0 0 0 .56 0c.83-.11 1.17-.72 1.53-1.63l4.54-11.2c.22-.53.33-.73.51-.73s.27.17.45.58c.43 1 3.33 8.23 4.48 11 .69 1.63 1.21 1.88 1.59 2a4.38 4.38 0 0 0 .76.07c.15 0 .24 0 .24.14s-.17.18-.83.18h-3.42c-.33 0-.54 0-.54-.15s.07-.14.25-.16a.3.3 0 0 0 .16-.42l-1.44-3.72a.18.18 0 0 0-.18-.13Z" transform="translate(-6.06 -1.37)"/><path class="cls-2" d="M186.44 48.59c0 2.31 0 3.56.38 3.89s.78.39 2.19.39c1 0 1.66 0 2.11-.5a2.19 2.19 0 0 0 .47-1.09c0-.16.06-.27.2-.27s.15.09.15.31a13.84 13.84 0 0 1-.28 2.08c-.1.4-.19.49-1.13.49-1.31 0-2.25 0-3.06-.06s-1.46 0-2.21 0h-2.24c-.24 0-.36 0-.36-.18s.07-.14.28-.14a3.5 3.5 0 0 0 .66-.07c.36-.08.45-.48.52-1 .09-.76.09-2.19.09-3.85v-7.01c0-.57-.18-.91-.77-1a2.52 2.52 0 0 0-.6-.06c-.2 0-.31 0-.31-.16s.13-.16.4-.16H187.87c.25 0 .37 0 .37.16s-.1.16-.32.16a4.44 4.44 0 0 0-.71.06c-.48.09-.63.39-.66 1s0 1.08 0 3.83v3.18ZM195.75 41.18l-2.69.07c-1.05 0-1.49.13-1.76.53a2.2 2.2 0 0 0-.31.63c0 .14-.09.21-.19.21s-.17-.09-.17-.28.35-1.94.38-2.08.11-.35.22-.35a4.14 4.14 0 0 0 .78.22c.52 0 1.21.09 1.8.09H201a8.15 8.15 0 0 0 1.25-.09c.27-.05.42-.09.49-.09s.14.11.14.38v2.1c0 .18-.05.29-.16.29s-.18-.1-.2-.37v-.19c0-.47-.53-1-2.13-1h-2.28v7.41c0 1.66 0 3.09.09 3.87.05.5.16.9.7 1a9.23 9.23 0 0 0 .93.07c.19 0 .28.05.28.14s-.14.18-.34.18H194.66c-.24 0-.37 0-.37-.18s.08-.14.29-.14a3.38 3.38 0 0 0 .65-.07c.37-.08.47-.48.53-1 .09-.76.09-2.19.09-3.85v-7.5ZM214.55 45.91a.11.11 0 0 0 .11-.12v-4.21c0-.57-.18-.91-.78-1a3.31 3.31 0 0 0-.7-.06c-.2 0-.31 0-.31-.16s.13-.16.38-.16h4.88c.25 0 .38 0 .38.16s-.11.16-.32.16a3 3 0 0 0-.53.06c-.49.09-.63.39-.67 1s0 1.08 0 3.83v3.18c0 1.66 0 3.09.09 3.87.05.5.16.9.7 1a9 9 0 0 0 .92.07c.2 0 .29.05.29.14s-.14.18-.36.18h-5.08c-.25 0-.38 0-.38-.18s.07-.14.29-.14a3.38 3.38 0 0 0 .65-.07c.36-.08.45-.48.53-1 .09-.76.09-2.19.09-3.85V47a.11.11 0 0 0-.11-.11h-6.91a.1.1 0 0 0-.11.11v1.59c0 1.66 0 3.09.09 3.87.06.5.17.9.71 1a9 9 0 0 0 .92.07c.2 0 .29.05.29.14s-.14.18-.36.18h-5.1c-.23 0-.36 0-.36-.18s.07-.14.29-.14a3.38 3.38 0 0 0 .65-.07c.36-.08.45-.48.52-1 .09-.76.09-2.19.09-3.85v-7.03c0-.57-.18-.91-.78-1a3.31 3.31 0 0 0-.7-.06c-.2 0-.31 0-.31-.16s.13-.16.38-.16h4.88c.25 0 .38 0 .38.16s-.11.16-.33.16a3 3 0 0 0-.52.06c-.49.09-.63.39-.67 1s0 1.08 0 3.83v.38a.11.11 0 0 0 .11.12ZM225.79 53.59c-.34-.15-.4-.25-.4-.72 0-1.16.09-2.42.11-2.76s.08-.55.25-.55.21.19.21.36a4.32 4.32 0 0 0 .19 1.08 2.89 2.89 0 0 0 3 2.12 2.56 2.56 0 0 0 2.83-2.4c0-1-.32-2-2.07-3.37l-1-.76c-2.32-1.81-3.12-3.29-3.12-5 0-2.32 1.94-4 4.87-4a10.16 10.16 0 0 1 2.81.36c.19 0 .29.1.29.25s-.08.88-.08 2.53c0 .46-.06.63-.23.63s-.21-.12-.21-.38a2.58 2.58 0 0 0-.55-1.39 2.68 2.68 0 0 0-2.3-1 2.22 2.22 0 0 0-2.51 2.17c0 1 .49 1.71 2.24 3l.59.45c2.55 1.92 3.45 3.37 3.45 5.37a4.24 4.24 0 0 1-2 3.67 6 6 0 0 1-3.35.87 7.34 7.34 0 0 1-3.08-.55Z" transform="translate(-6.06 -1.37)"/><path class="cls-2" d="M239.7 49.15a3.79 3.79 0 0 0-.42-1.9c-.13-.29-2.55-4.26-3.18-5.2a4.32 4.32 0 0 0-1.25-1.32 1.77 1.77 0 0 0-.76-.24c-.14 0-.27 0-.27-.16s.13-.16.35-.16h4.21c.18 0 .27 0 .27.16s-.13.13-.4.2a.32.32 0 0 0-.25.32 1.79 1.79 0 0 0 .21.62c.26.54 2.79 4.9 3.08 5.4.18-.43 2.46-4.41 2.71-5a2.34 2.34 0 0 0 .25-.94.43.43 0 0 0-.38-.45c-.16 0-.32-.07-.32-.18s.09-.16.3-.16H247.49c.2 0 .32 0 .32.14s-.14.18-.34.18a1.94 1.94 0 0 0-.8.22 2.74 2.74 0 0 0-1 .88 57.54 57.54 0 0 0-3.45 5.75 4.2 4.2 0 0 0-.28 1.81v1.48c0 .29 0 1 .06 1.81 0 .52.2.92.74 1 .25 0 .65.07.9.07s.29.05.29.14-.14.18-.38.18h-5.02c-.26 0-.4 0-.4-.18s.09-.14.29-.14a3.34 3.34 0 0 0 .63-.07c.36-.08.53-.48.56-1 .06-.76.06-1.52.06-1.81v-1.45ZM247.88 53.62c-.28-.13-.34-.22-.34-.62 0-1 .07-2.08.09-2.37s.07-.47.22-.47.18.17.18.31a3.79 3.79 0 0 0 .16.92 2.5 2.5 0 0 0 2.59 1.83 2.2 2.2 0 0 0 2.42-2.06c0-.89-.27-1.72-1.77-2.9l-.83-.65c-2-1.55-2.68-2.82-2.68-4.28 0-2 1.66-3.42 4.18-3.42a8.58 8.58 0 0 1 2.4.31c.16 0 .25.09.25.22s-.07.76-.07 2.17c0 .39-.05.54-.2.54s-.18-.11-.18-.33a2.19 2.19 0 0 0-.47-1.19 2.29 2.29 0 0 0-2-.89 1.9 1.9 0 0 0-2.15 1.87c0 .83.42 1.46 1.92 2.6l.5.38c2.19 1.64 3 2.89 3 4.61a3.64 3.64 0 0 1-1.7 3.14 5.25 5.25 0 0 1-2.88.75 6.32 6.32 0 0 1-2.64-.47ZM260.9 41.18l-2.69.07c-1 0-1.49.13-1.76.53a2.2 2.2 0 0 0-.31.63c0 .14-.09.21-.19.21s-.17-.09-.17-.28.35-1.94.38-2.08.11-.35.22-.35a4.14 4.14 0 0 0 .78.22c.52 0 1.21.09 1.8.09h7.16a8.15 8.15 0 0 0 1.25-.09c.27-.05.42-.09.49-.09s.14.11.14.38-.05 1.63-.05 2.1c0 .18-.05.29-.16.29s-.18-.1-.2-.37v-.19c0-.47-.53-1-2.13-1h-2.28v7.41c0 1.66 0 3.09.09 3.87.05.5.16.9.7 1a9.23 9.23 0 0 0 .93.07c.19 0 .29.05.29.14s-.15.18-.35.18H259.73c-.24 0-.37 0-.37-.18s.08-.14.29-.14a3.38 3.38 0 0 0 .65-.07c.37-.08.47-.48.53-1 .09-.76.09-2.19.09-3.85v-7.5ZM270.42 45.41v-3.83c0-.57-.18-.91-.78-1a3.31 3.31 0 0 0-.7-.06c-.2 0-.31 0-.31-.16s.13-.16.4-.16H276.15a5.5 5.5 0 0 0 .78-.11c.09 0 .2-.07.29-.07s.1.07.1.16a11.54 11.54 0 0 0-.14 1.18c0 .18 0 1-.09 1.19s-.06.2-.18.2-.16-.09-.16-.25a1.91 1.91 0 0 0-.11-.65c-.13-.33-.31-.54-1.21-.65-.31 0-2.21-.08-2.57-.08-.09 0-.13.06-.13.19v4.57c0 .13 0 .2.13.2h2.89a1.23 1.23 0 0 0 .87-.27c.13-.14.2-.23.29-.23s.12 0 .12.14-.07.4-.14 1.32c0 .36-.07 1.08-.07 1.21s0 .34-.16.34-.17-.07-.17-.16a6.06 6.06 0 0 0-.07-.65c-.09-.36-.34-.63-1-.7-.35 0-2.14-.06-2.57-.06-.09 0-.11.07-.11.18V51.43c0 1.25.33 1.52 2.17 1.52a4.53 4.53 0 0 0 1.7-.22c.47-.21.69-.59.81-1.33 0-.2.08-.28.2-.28s.15.15.15.33a14.17 14.17 0 0 1-.24 2c-.12.47-.29.47-1 .47-1.36 0-2.35 0-3.13-.06s-1.34 0-1.88 0h-2.25c-.36 0-.36 0-.36-.18s.07-.14.29-.14a3.38 3.38 0 0 0 .65-.07c.36-.08.45-.48.52-1 .09-.76.09-2.19.09-3.85v-3.21ZM281.61 40.38c.06-.3.17-.47.31-.47s.25.09.49.56l4.93 10.05 4.92-10.17c.15-.29.24-.44.4-.44s.27.18.32.56l1.65 11.07c.16 1.14.34 1.66.89 1.82a3.36 3.36 0 0 0 1.12.18c.16 0 .28 0 .28.13s-.21.2-.47.2c-.45 0-2.94 0-3.66-.09-.42 0-.53-.09-.53-.2s.07-.14.2-.2.16-.27.09-.78l-1.08-7.86h-.08l-3.94 8.06c-.41.85-.5 1-.67 1s-.34-.36-.63-.9c-.43-.83-1.86-3.6-2.08-4.1s-1.25-2.52-1.88-3.87h-.07l-.94 7.07a6.41 6.41 0 0 0-.06.85c0 .34.24.5.55.58a3.61 3.61 0 0 0 .76.09c.14 0 .27 0 .27.12s-.17.2-.44.2H278.58c-.18 0-.33 0-.33-.2s.11-.12.29-.12a2.11 2.11 0 0 0 .54-.06c.51-.11.65-.81.74-1.43l1.79-11.64ZM33.06 65.68h.13a.35.35 0 0 0 .11 0 .12.12 0 0 0 .08-.06.23.23 0 0 0 0-.13.17.17 0 0 0 0-.1.12.12 0 0 0-.06-.06h-.47v.42Zm.09-.58a.54.54 0 0 1 .35.09.33.33 0 0 1 .11.28.37.37 0 0 1-.09.27.5.5 0 0 1-.25.09l.37.59h-.22l-.35-.57h-.22v.57h-.21V65.1Zm-.93 1a.88.88 0 0 0 .2.3.86.86 0 0 0 .29.21.94.94 0 0 0 .37.07.9.9 0 0 0 .37-.07.86.86 0 0 0 .29-.21.88.88 0 0 0 .2-.3 1 1 0 0 0 .07-.39.93.93 0 0 0-.27-.68 1 1 0 0 0-.29-.2.91.91 0 0 0-.37-.08 1 1 0 0 0-.37.08 1 1 0 0 0-.29.2.93.93 0 0 0-.27.68 1 1 0 0 0 .07.39Zm-.22-.79a1.13 1.13 0 0 1 .24-.36 1.26 1.26 0 0 1 .36-.24 1.32 1.32 0 0 1 .44-.08 1.27 1.27 0 0 1 .44.08 1.1 1.1 0 0 1 .6.6.92.92 0 0 1 .1.44.93.93 0 0 1-.1.45 1.1 1.1 0 0 1-.6.6 1.08 1.08 0 0 1-.44.08 1.11 1.11 0 0 1-.44-.08 1.26 1.26 0 0 1-.36-.24 1.13 1.13 0 0 1-.24-.36.93.93 0 0 1-.1-.45.92.92 0 0 1 .1-.44ZM9.19 15.15l.88 12.56c1.35-1.54 8.14-9.41 12.18-16.85-4 .55-9.16 1.73-13.06 4.29ZM26.41 53.35C22 60.05 29.78 66.5 29.78 66.5c-1.13-4.63 5.46-12 5.46-12 3.28-6.18-2-12.19-2-12.19a53.65 53.65 0 0 1-6.81 11.08Z" transform="translate(-6.06 -1.37)"/><g style="clip-path:url(#clip-path)"><path class="cls-2" d="M33 20.65c-1 4-4.16 8.44-4.16 8.44l-9.73 14.2c-4.87 9.21 2.5 13.83 2.5 13.83C21.68 53.35 33.16 39 33.16 39 38.88 28.34 33 20.65 33 20.65Z" transform="translate(-6.06 -1.37)"/><path class="cls-2" d="M52.19 9.83c-7.52-5-19.47-5.33-22.95-5.32a14.89 14.89 0 0 0-2.08-3.14 11.06 11.06 0 0 1-.26 3.21C12.23 5.22 6.06 10 6.06 10l1.79 2.64C13.44 9 22 8 26 7.77c-3.31 9-12.18 20.42-12.18 20.42-7.3 12.18.59 20.47.59 20.47.85-7.54 11.89-20.38 11.89-20.38 3.87-5.63 5.14-10.6 5.16-14.7l16.09 23L49 15c-1-.73-6.34-4.13-17.81-4.56a19 19 0 0 0-.63-2.74c14 .31 19.72 4.71 19.72 4.71l1.92-2.58Z" transform="translate(-6.06 -1.37)"/></g><path class="cls-2" d="M25 15.08h.25l.07-.07a.21.21 0 0 0 0-.12.31.31 0 0 0 0-.11l-.07-.06h-.47v.42Zm.09-.59a.54.54 0 0 1 .35.09.36.36 0 0 1 .12.29.35.35 0 0 1-.1.26.51.51 0 0 1-.25.1l.38.58h-.22l-.37-.57h-.22v.57h-.21v-1.32Zm-.93 1a1.1 1.1 0 0 0 .2.31 1 1 0 0 0 .29.2 1 1 0 0 0 .37.08.87.87 0 0 0 .37-.08 1 1 0 0 0 .29-.2.92.92 0 0 0 .2-.31 1 1 0 0 0 .07-.38 1 1 0 0 0-.27-.69 1 1 0 0 0-.29-.2.87.87 0 0 0-.37-.07.94.94 0 0 0-.37.07 1 1 0 0 0-.29.2 1.1 1.1 0 0 0-.2.31 1.12 1.12 0 0 0-.07.38 1.22 1.22 0 0 0 .07.38Zm-.18-.83a1.09 1.09 0 0 1 .24-.35 1.12 1.12 0 0 1 .37-.24A1 1 0 0 1 25 14a1 1 0 0 1 .44.09 1 1 0 0 1 .36.24 1.12 1.12 0 0 1 .25.35 1.17 1.17 0 0 1 0 .9 1.29 1.29 0 0 1-.25.36 1 1 0 0 1-.36.23 1 1 0 0 1-.44.09 1 1 0 0 1-.43-.09 1.1 1.1 0 0 1-.37-.23 1.26 1.26 0 0 1-.24-.36 1.17 1.17 0 0 1 0-.9Z" transform="translate(-6.06 -1.37)"/></svg>
